<?xml version="1.0" encoding="utf-8"?>
<!-- Generator: Adobe Illustrator 18.1.1, SVG Export Plug-In . SVG Version: 6.00 Build 0)  -->
<svg version="1.1" id="Layer_1" xmlns="http://www.w3.org/2000/svg" xmlns:xlink="http://www.w3.org/1999/xlink" x="0px" y="0px"
	 viewBox="0 0 436.7 151.3" enable-background="new 0 0 436.7 151.3" xml:space="preserve">
<g>
	<g>
		<polygon fill="#FFFFFF" points="17.8,32.8 9.5,41.1 41.4,73 49.7,64.7 		"/>
		<polygon fill="#FFFFFF" points="55.2,86.8 87,118.5 95.3,110.2 63.5,78.5 61.7,80.3 		"/>
		<polygon fill="#FFFFFF" points="117.3,132.3 107.8,122.7 99.4,131 109,140.6 		"/>
		<polygon fill="#FFFFFF" points="31.9,19.2 41.4,28.8 49.8,20.5 40.2,10.9 		"/>
		<polygon fill="#FFFFFF" points="63,32.4 54.7,40.7 86.2,72.2 94.5,63.9 		"/>
		<polygon fill="#FFFFFF" points="100,86 131.9,117.9 140.2,109.6 108.3,77.7 		"/>
		<polygon fill="#FFFFFF" points="64.2,54.7 54.2,64.7 54.2,64.7 41.4,77.5 41.4,77.5 31.9,87 41.3,96.3 59.5,78.1 63.5,74 63.5,74 
			73.5,64 		"/>
		
			<rect x="47.8" y="62.1" transform="matrix(0.7179 0.6961 -0.6961 0.7179 62.9941 -13.227)" fill="#FFFFFF" width="0" height="18.1"/>
		<polygon fill="#FFFFFF" points="59.5,78.1 63.5,74 63.5,74 		"/>
		<polygon fill="#FFFFFF" points="99,63.9 99,63.9 86.2,76.7 86.2,76.7 76.2,86.6 85.5,95.9 116.9,64.6 107.5,55.3 		"/>
		<rect x="92.6" y="61.2" fill="#FFFFFF" width="0" height="18.1"/>
		<polygon fill="#FFFFFF" points="128.8,34 120.4,42.5 129.7,51.8 138.1,43.3 		"/>
		<polygon fill="#FFFFFF" points="63.2,99.6 31.8,131 41.2,140.3 72.6,108.9 		"/>
		
			<rect x="12.7" y="102.2" transform="matrix(-0.7069 0.7073 -0.7073 -0.7069 110.1405 171.8946)" fill="#FFFFFF" width="13.5" height="13.2"/>
		<polygon fill="#FFFFFF" points="86.3,51.2 115.9,21.7 106.5,12.4 77,41.9 		"/>
		<polygon fill="#FFFFFF" points="27.3,63.5 19.4,55.6 0,75 41.6,116.6 49.3,108.9 15.7,75.1 		"/>
		<polygon fill="#FFFFFF" points="107.7,118.2 107.8,118.2 117.7,108.3 109.7,100.4 74.5,135.6 62.4,123.6 54.7,131.4 74.6,151.3 
			94.9,131 94.9,131 		"/>
		<polygon fill="#FFFFFF" points="107.7,118.2 94.9,131 94.9,131 107.8,118.2 		"/>
		<polygon fill="#FFFFFF" points="121.4,64.5 121.3,64.6 133.4,76.7 122.7,87.4 130.6,95.3 149.6,76.3 107.7,34.4 99.4,42.7 
			107.5,50.8 107.6,50.8 		"/>
		<polygon fill="#FFFFFF" points="121.4,64.5 107.6,50.8 107.5,50.8 121.3,64.6 		"/>
		<polygon fill="#FFFFFF" points="86.3,27.9 94.6,19.6 75,0 32.4,42.6 40.3,50.5 74.6,16.2 		"/>
	</g>
	<g>
		<path fill="#FFFFFF" d="M192.1,16.6c-0.4-1.2-0.7-2-1.2-2.3c-0.3-0.2-1-0.3-1.3-0.3c-0.3,0-0.5,0-0.5-0.3c0-0.2,0.3-0.3,0.7-0.3
			c1.7,0,3.4,0.1,3.7,0.1c0.3,0,1.7-0.1,3.6-0.1c0.4,0,0.7,0.1,0.7,0.3c0,0.3-0.3,0.3-0.6,0.3c-0.3,0-0.6,0-0.8,0.1
			c-0.3,0.1-0.4,0.4-0.4,0.7c0,0.4,0.3,1.5,0.7,3c0.5,2.1,3.5,11.9,4.1,13.7h0.1l6.2-16.7c0.3-0.9,0.5-1.2,0.8-1.2
			c0.4,0,0.5,0.5,0.9,1.5l6.7,16.1h0.1c0.6-2.2,3.1-10.6,4.3-14.4c0.2-0.7,0.3-1.4,0.3-1.9c0-0.5-0.3-0.9-1.5-0.9
			c-0.3,0-0.5-0.1-0.5-0.3c0-0.2,0.2-0.3,0.7-0.3c1.7,0,3,0.1,3.3,0.1c0.2,0,1.6-0.1,2.7-0.1c0.3,0,0.6,0.1,0.6,0.3
			c0,0.2-0.1,0.3-0.4,0.3c-0.3,0-0.8,0-1.1,0.2c-0.8,0.3-1.1,1.6-1.8,3.4c-1.5,4-4.8,14.2-6.4,19.1c-0.4,1.1-0.5,1.5-0.9,1.5
			c-0.3,0-0.5-0.4-1-1.6l-6.7-16.1h-0.1c-0.6,1.6-4.9,13-6.3,16c-0.6,1.3-0.8,1.7-1.2,1.7c-0.3,0-0.4-0.4-0.7-1.2L192.1,16.6z"/>
		<path fill="#FFFFFF" d="M231.3,25.6c0-5.5,3.6-12.6,13.3-12.6c8,0,13,4.6,13,12c0,7.4-5.1,13.2-13.3,13.2
			C235.1,38.2,231.3,31.3,231.3,25.6z M253.1,26.2c0-7.2-4.1-11.7-9.4-11.7c-3.7,0-7.9,2-7.9,10.1c0,6.7,3.7,12,9.9,12
			C247.9,36.6,253.1,35.5,253.1,26.2z"/>
		<path fill="#FFFFFF" d="M269.3,22.8c0-4.9,0-5.8-0.1-6.8c-0.1-1.1-0.3-1.6-1.4-1.8c-0.3-0.1-0.8-0.1-1.3-0.1
			c-0.4,0-0.6-0.1-0.6-0.3c0-0.2,0.2-0.3,0.7-0.3c1.7,0,3.7,0.1,4.4,0.1c1.1,0,3.5-0.1,4.5-0.1c2,0,4.2,0.2,5.9,1.4
			c0.9,0.6,2.2,2.3,2.2,4.4c0,2.4-1,4.5-4.2,7.2c2.9,3.6,5.1,6.5,7,8.5c1.8,1.9,3.1,2.1,3.6,2.2c0.3,0.1,0.6,0.1,0.9,0.1
			c0.3,0,0.4,0.1,0.4,0.3c0,0.2-0.2,0.3-0.6,0.3h-3c-1.8,0-2.6-0.2-3.4-0.6c-1.4-0.7-2.6-2.3-4.4-4.7c-1.3-1.8-2.8-3.9-3.2-4.4
			c-0.1-0.2-0.3-0.2-0.6-0.2l-2.8-0.1c-0.2,0-0.3,0.1-0.3,0.3v0.5c0,3,0,5.5,0.2,6.9c0.1,0.9,0.3,1.6,1.3,1.8
			c0.5,0.1,1.2,0.1,1.6,0.1c0.3,0,0.4,0.1,0.4,0.3c0,0.2-0.2,0.3-0.7,0.3c-1.9,0-4.2-0.1-4.7-0.1c-0.6,0-2.6,0.1-3.9,0.1
			c-0.4,0-0.6-0.1-0.6-0.3c0-0.2,0.1-0.3,0.5-0.3c0.5,0,0.9-0.1,1.1-0.1c0.6-0.1,0.8-0.8,0.9-1.8c0.2-1.4,0.2-3.9,0.2-6.8V22.8z
			 M273.1,25.3c0,0.4,0.1,0.5,0.3,0.6c0.7,0.2,1.6,0.3,2.4,0.3c1.3,0,1.7-0.1,2.3-0.5c1-0.7,1.9-2.2,1.9-4.8c0-4.5-3-5.9-4.9-5.9
			c-0.8,0-1.4,0-1.7,0.1c-0.2,0.1-0.3,0.2-0.3,0.4V25.3z"/>
		<path fill="#FFFFFF" d="M302.6,28.4c0,4.1,0,6.3,0.7,6.9c0.5,0.5,1.4,0.7,3.9,0.7c1.7,0,3,0,3.8-0.9c0.4-0.4,0.8-1.3,0.8-1.9
			c0-0.3,0.1-0.5,0.4-0.5c0.2,0,0.3,0.2,0.3,0.5c0,0.4-0.2,2.8-0.5,3.7c-0.2,0.7-0.4,0.9-2,0.9c-2.3,0-4-0.1-5.4-0.1
			c-1.4-0.1-2.6-0.1-3.9-0.1c-0.3,0-1.1,0-1.8,0c-0.7,0-1.6,0.1-2.2,0.1c-0.4,0-0.7-0.1-0.7-0.3c0-0.2,0.1-0.3,0.5-0.3
			c0.5,0,0.9-0.1,1.2-0.1c0.7-0.1,0.8-0.8,0.9-1.8c0.2-1.4,0.2-3.9,0.2-6.8v-5.7c0-4.9,0-5.8-0.1-6.8c-0.1-1.1-0.3-1.6-1.4-1.8
			c-0.2-0.1-0.7-0.1-1.1-0.1c-0.4,0-0.5-0.1-0.5-0.3c0-0.2,0.2-0.3,0.7-0.3c1.5,0,3.5,0.1,4.4,0.1c0.8,0,3.1-0.1,4.4-0.1
			c0.5,0,0.7,0.1,0.7,0.3c0,0.2-0.2,0.3-0.6,0.3c-0.3,0-0.9,0-1.3,0.1c-0.9,0.2-1.1,0.7-1.2,1.8c-0.1,1-0.1,1.9-0.1,6.8V28.4z"/>
		<path fill="#FFFFFF" d="M323.1,22.8c0-4.9,0-5.8-0.1-6.8c-0.1-1.1-0.3-1.6-1.4-1.8c-0.3-0.1-0.8-0.1-1.2-0.1
			c-0.4,0-0.6-0.1-0.6-0.3c0-0.2,0.2-0.3,0.7-0.3c1.7,0,3.7,0.1,4.6,0.1c1,0,3-0.1,4.9-0.1c4,0,9.4,0,12.9,3.6
			c1.6,1.7,3.1,4.3,3.1,8.2c0,4-1.7,7.1-3.5,9c-1.5,1.5-4.8,3.8-10.8,3.8c-1.2,0-2.5-0.1-3.7-0.2c-1.2-0.1-2.4-0.2-3.1-0.2
			c-0.4,0-1.1,0-1.8,0c-0.7,0-1.6,0.1-2.2,0.1c-0.4,0-0.6-0.1-0.6-0.3c0-0.2,0.1-0.3,0.5-0.3c0.5,0,0.9-0.1,1.2-0.1
			c0.6-0.1,0.8-0.8,0.9-1.8c0.2-1.4,0.2-3.9,0.2-6.8V22.8z M327.1,26.3c0,3.4,0,5.9,0.1,6.5c0,0.8,0.1,2.1,0.4,2.4
			c0.4,0.6,1.7,1.3,4.2,1.3c3.3,0,5.5-0.6,7.4-2.3c2.1-1.8,2.7-4.7,2.7-8c0-4.1-1.7-6.7-3.1-8c-3-2.8-6.6-3.2-9.1-3.2
			c-0.6,0-1.8,0.1-2.1,0.2c-0.3,0.1-0.4,0.3-0.4,0.6c0,1.1,0,3.9,0,6.4V26.3z"/>
		<path fill="#FFFFFF" d="M195,74.9c0-4.9,0-5.8-0.1-6.8c-0.1-1.1-0.3-1.6-1.4-1.8c-0.2-0.1-0.8-0.1-1.2-0.1c-0.3,0-0.5-0.1-0.5-0.3
			c0-0.2,0.2-0.3,0.7-0.3c1.7,0,3.7,0.1,4.4,0.1c1.1,0,3.5-0.1,4.5-0.1c2,0,4.2,0.2,5.9,1.4c0.9,0.6,2.2,2.2,2.2,4.4
			c0,2.4-1,4.6-4.2,7.2c2.9,3.6,5.1,6.5,7,8.4c1.8,1.9,3.1,2.1,3.6,2.2c0.4,0.1,0.6,0.1,0.9,0.1c0.2,0,0.4,0.1,0.4,0.2
			c0,0.3-0.2,0.3-0.6,0.3h-3.1c-1.8,0-2.6-0.2-3.4-0.6c-1.4-0.7-2.6-2.2-4.4-4.7c-1.3-1.8-2.8-3.9-3.2-4.4c-0.2-0.2-0.4-0.2-0.6-0.2
			l-2.8-0.1c-0.2,0-0.3,0.1-0.3,0.3v0.5c0,3,0,5.5,0.2,6.9c0.1,0.9,0.3,1.6,1.3,1.8c0.5,0.1,1.2,0.1,1.6,0.1c0.3,0,0.4,0.1,0.4,0.2
			c0,0.2-0.2,0.3-0.7,0.3c-1.9,0-4.2-0.1-4.7-0.1c-0.6,0-2.6,0.1-3.9,0.1c-0.4,0-0.7-0.1-0.7-0.3c0-0.2,0.1-0.2,0.5-0.2
			c0.5,0,0.9-0.1,1.2-0.1c0.6-0.1,0.8-0.8,0.9-1.8c0.1-1.4,0.1-3.9,0.1-6.8V74.9z M198.8,77.4c0,0.4,0.1,0.5,0.3,0.6
			c0.7,0.2,1.6,0.3,2.4,0.3c1.3,0,1.7-0.1,2.3-0.5c1-0.7,1.9-2.2,1.9-4.8c0-4.6-3-5.9-4.9-5.9c-0.8,0-1.4,0-1.7,0.1
			c-0.2,0.1-0.3,0.2-0.3,0.4V77.4z"/>
		<path fill="#FFFFFF" d="M224.2,74.9c0-4.9,0-5.8-0.1-6.8c-0.1-1.1-0.3-1.6-1.4-1.8c-0.3-0.1-0.8-0.1-1.2-0.1
			c-0.4,0-0.6-0.1-0.6-0.3c0-0.2,0.2-0.3,0.7-0.3c0.9,0,1.8,0,2.6,0c0.8,0,1.6,0.1,2,0.1c1,0,7.4,0,8,0c0.6-0.1,1.1-0.1,1.4-0.2
			c0.2,0,0.4-0.1,0.5-0.1c0.2,0,0.2,0.1,0.2,0.3c0,0.2-0.2,0.6-0.3,2.1c0,0.3-0.1,1.7-0.2,2.1c0,0.2-0.1,0.4-0.3,0.4
			c-0.2,0-0.3-0.2-0.3-0.4c0-0.2,0-0.8-0.2-1.2c-0.2-0.6-0.6-1-2.2-1.2c-0.5-0.1-3.9-0.1-4.6-0.1c-0.2,0-0.2,0.1-0.2,0.3v8.1
			c0,0.2,0,0.3,0.2,0.3c0.7,0,4.4,0,5.1-0.1c0.8-0.1,1.3-0.2,1.5-0.5c0.2-0.3,0.4-0.4,0.5-0.4c0.1,0,0.2,0.1,0.2,0.3
			c0,0.2-0.1,0.7-0.3,2.3c0,0.6-0.1,1.9-0.1,2.2c0,0.2,0,0.6-0.3,0.6c-0.2,0-0.3-0.1-0.3-0.3c0-0.3,0-0.7-0.1-1.2
			c-0.2-0.6-0.6-1.1-1.8-1.2c-0.6-0.1-3.8-0.1-4.6-0.1c-0.2,0-0.2,0.1-0.2,0.3v2.5c0,1.1,0,4.1,0,5c0.1,2.2,0.6,2.7,3.8,2.7
			c0.8,0,2.2,0,3-0.4c0.8-0.4,1.2-1.1,1.5-2.4c0.1-0.4,0.1-0.5,0.3-0.5c0.3,0,0.3,0.3,0.3,0.6c0,0.7-0.3,2.9-0.4,3.6
			c-0.2,0.8-0.5,0.8-1.7,0.8c-2.4,0-4.2-0.1-5.6-0.1c-1.4-0.1-2.4-0.1-3.3-0.1c-0.4,0-1.1,0-1.8,0c-0.7,0-1.6,0.1-2.2,0.1
			c-0.4,0-0.7-0.1-0.7-0.3c0-0.2,0.1-0.2,0.5-0.2c0.5,0,0.9-0.1,1.2-0.1c0.6-0.1,0.8-0.8,0.9-1.8c0.2-1.4,0.2-3.9,0.2-6.8V74.9z"/>
		<path fill="#FFFFFF" d="M247.8,89.5c-0.5-0.2-0.6-0.4-0.6-1.1c0-1.8,0.1-3.7,0.1-4.2c0-0.5,0.1-0.8,0.4-0.8c0.3,0,0.3,0.3,0.3,0.5
			c0,0.4,0.1,1.1,0.3,1.6c0.7,2.4,2.6,3.2,4.6,3.2c2.9,0,4.3-2,4.3-3.7c0-1.6-0.5-3-3.1-5.1l-1.5-1.2c-3.5-2.8-4.8-5-4.8-7.6
			c0-3.5,3-6.1,7.4-6.1c2.1,0,3.4,0.3,4.3,0.6c0.3,0.1,0.5,0.2,0.5,0.4c0,0.4-0.1,1.3-0.1,3.9c0,0.7-0.1,1-0.3,1
			c-0.2,0-0.3-0.2-0.3-0.6c0-0.3-0.2-1.3-0.8-2.1c-0.5-0.6-1.4-1.6-3.5-1.6c-2.4,0-3.8,1.4-3.8,3.3c0,1.5,0.8,2.6,3.4,4.6l0.9,0.7
			c3.9,2.9,5.3,5.1,5.3,8.2c0,1.9-0.7,4.1-3,5.6c-1.6,1-3.4,1.3-5.1,1.3C250.6,90.3,249.2,90.1,247.8,89.5z"/>
		<path fill="#FFFFFF" d="M269.8,77.7c0-5.5,3.6-12.6,13.3-12.6c8,0,13,4.7,13,12c0,7.4-5.1,13.2-13.3,13.2
			C273.5,90.3,269.8,83.4,269.8,77.7z M291.5,78.3c0-7.2-4.1-11.7-9.4-11.7c-3.7,0-7.9,2.1-7.9,10.1c0,6.7,3.7,12,9.9,12
			C286.3,88.7,291.5,87.6,291.5,78.3z"/>
		<path fill="#FFFFFF" d="M306.7,74.9c0-4.9,0-5.8-0.1-6.8c-0.1-1.1-0.3-1.6-1.4-1.8c-0.3-0.1-0.8-0.1-1.3-0.1
			c-0.4,0-0.5-0.1-0.5-0.3c0-0.2,0.2-0.3,0.7-0.3c1.7,0,3.7,0.1,4.7,0.1c0.8,0,2.8-0.1,3.9-0.1c0.5,0,0.7,0.1,0.7,0.3
			c0,0.2-0.2,0.3-0.5,0.3c-0.4,0-0.6,0-0.9,0.1c-0.9,0.2-1.1,0.7-1.2,1.8c-0.1,1-0.1,1.9-0.1,6.8v4.5c0,4.6,0.9,6.6,2.5,7.9
			c1.4,1.2,2.9,1.3,4,1.3c1.4,0,3.2-0.4,4.4-1.7c1.8-1.8,1.9-4.7,1.9-8v-4c0-4.9,0-5.8-0.1-6.8c-0.1-1.1-0.3-1.6-1.4-1.8
			c-0.3-0.1-0.8-0.1-1.2-0.1c-0.3,0-0.5-0.1-0.5-0.3c0-0.2,0.2-0.3,0.7-0.3c1.6,0,3.6,0.1,3.6,0.1c0.4,0,2.4-0.1,3.7-0.1
			c0.5,0,0.7,0.1,0.7,0.3c0,0.2-0.2,0.3-0.6,0.3c-0.3,0-0.6,0-0.9,0.1c-0.9,0.2-1.1,0.7-1.2,1.8c-0.1,1-0.1,1.9-0.1,6.8v3.4
			c0,3.6-0.3,7.3-3.1,9.7c-2.3,2-4.6,2.3-6.7,2.3c-1.7,0-4.8-0.1-7.1-2.2c-1.6-1.5-2.9-3.8-2.9-8.5V74.9z"/>
		<path fill="#FFFFFF" d="M340.5,74.9c0-4.9,0-5.8-0.1-6.8c-0.1-1.1-0.3-1.6-1.4-1.8c-0.3-0.1-0.8-0.1-1.3-0.1
			c-0.3,0-0.6-0.1-0.6-0.3c0-0.2,0.2-0.3,0.7-0.3c1.7,0,3.7,0.1,4.4,0.1c1.1,0,3.5-0.1,4.5-0.1c2,0,4.2,0.2,5.9,1.4
			c0.9,0.6,2.2,2.2,2.2,4.4c0,2.4-1,4.6-4.2,7.2c2.9,3.6,5.1,6.5,7,8.4c1.8,1.9,3.1,2.1,3.6,2.2c0.4,0.1,0.7,0.1,0.9,0.1
			c0.3,0,0.4,0.1,0.4,0.2c0,0.3-0.2,0.3-0.6,0.3h-3c-1.8,0-2.6-0.2-3.4-0.6c-1.4-0.7-2.6-2.2-4.4-4.7c-1.3-1.8-2.8-3.9-3.2-4.4
			c-0.2-0.2-0.4-0.2-0.6-0.2l-2.8-0.1c-0.2,0-0.3,0.1-0.3,0.3v0.5c0,3,0,5.5,0.2,6.9c0.1,0.9,0.3,1.6,1.3,1.8
			c0.5,0.1,1.2,0.1,1.6,0.1c0.3,0,0.4,0.1,0.4,0.2c0,0.2-0.2,0.3-0.6,0.3c-1.9,0-4.2-0.1-4.7-0.1c-0.6,0-2.6,0.1-3.9,0.1
			c-0.4,0-0.6-0.1-0.6-0.3c0-0.2,0.1-0.2,0.5-0.2c0.5,0,0.9-0.1,1.2-0.1c0.6-0.1,0.8-0.8,0.9-1.8c0.2-1.4,0.2-3.9,0.2-6.8V74.9z
			 M344.3,77.4c0,0.4,0.1,0.5,0.3,0.6c0.7,0.2,1.6,0.3,2.4,0.3c1.3,0,1.7-0.1,2.3-0.5c1-0.7,1.9-2.2,1.9-4.8c0-4.6-3-5.9-4.9-5.9
			c-0.8,0-1.4,0-1.7,0.1c-0.2,0.1-0.3,0.2-0.3,0.4V77.4z"/>
		<path fill="#FFFFFF" d="M370.1,86.8c-3.2-2.8-4-6.4-4-9.5c0-2.2,0.7-6,3.8-8.8c2.3-2.1,5.4-3.4,10.1-3.4c2,0,3.2,0.1,4.7,0.3
			c1.2,0.2,2.3,0.5,3.2,0.5c0.3,0,0.5,0.2,0.5,0.4c0,0.3-0.1,0.6-0.2,1.8c-0.1,1.1,0,2.8-0.1,3.5c0,0.5-0.1,0.7-0.4,0.7
			c-0.3,0-0.3-0.3-0.3-0.7c0-1-0.5-2.1-1.3-2.9c-1.1-1.1-3.6-2-6.5-2c-2.8,0-4.6,0.7-6,2c-2.3,2.1-3,5.2-3,8.3
			c0,7.6,5.8,11.4,10.1,11.4c2.9,0,4.6-0.3,5.9-1.8c0.6-0.6,1-1.5,1.1-2.1c0.1-0.5,0.2-0.6,0.4-0.6c0.2,0,0.3,0.2,0.3,0.5
			c0,0.4-0.4,3.2-0.7,4.3c-0.2,0.5-0.3,0.7-0.8,0.9c-1.3,0.5-3.7,0.7-5.8,0.7C376.7,90.3,373,89.4,370.1,86.8z"/>
		<path fill="#FFFFFF" d="M400.3,74.9c0-4.9,0-5.8-0.1-6.8c-0.1-1.1-0.3-1.6-1.4-1.8c-0.3-0.1-0.8-0.1-1.3-0.1
			c-0.4,0-0.6-0.1-0.6-0.3c0-0.2,0.2-0.3,0.7-0.3c0.9,0,1.8,0,2.6,0c0.8,0,1.6,0.1,2,0.1c1,0,7.4,0,8,0c0.6-0.1,1.1-0.1,1.4-0.2
			c0.2,0,0.4-0.1,0.5-0.1c0.2,0,0.2,0.1,0.2,0.3c0,0.2-0.2,0.6-0.2,2.1c0,0.3-0.1,1.7-0.2,2.1c0,0.2-0.1,0.4-0.3,0.4
			c-0.2,0-0.3-0.2-0.3-0.4c0-0.2,0-0.8-0.2-1.2c-0.2-0.6-0.5-1-2.1-1.2c-0.5-0.1-3.9-0.1-4.6-0.1c-0.2,0-0.2,0.1-0.2,0.3v8.1
			c0,0.2,0,0.3,0.2,0.3c0.7,0,4.4,0,5.1-0.1c0.8-0.1,1.2-0.2,1.5-0.5c0.2-0.3,0.4-0.4,0.5-0.4c0.1,0,0.2,0.1,0.2,0.3
			c0,0.2-0.1,0.7-0.3,2.3c0,0.6-0.1,1.9-0.1,2.2c0,0.2,0,0.6-0.3,0.6c-0.2,0-0.3-0.1-0.3-0.3c0-0.3,0-0.7-0.1-1.2
			c-0.2-0.6-0.6-1.1-1.8-1.2c-0.6-0.1-3.8-0.1-4.5-0.1c-0.2,0-0.2,0.1-0.2,0.3v2.5c0,1.1,0,4.1,0,5c0.1,2.2,0.6,2.7,3.9,2.7
			c0.8,0,2.2,0,3-0.4c0.8-0.4,1.2-1.1,1.5-2.4c0-0.4,0.1-0.5,0.3-0.5c0.3,0,0.3,0.3,0.3,0.6c0,0.7-0.3,2.9-0.4,3.6
			c-0.2,0.8-0.5,0.8-1.7,0.8c-2.4,0-4.2-0.1-5.6-0.1c-1.4-0.1-2.4-0.1-3.3-0.1c-0.4,0-1.1,0-1.8,0c-0.7,0-1.6,0.1-2.2,0.1
			c-0.4,0-0.6-0.1-0.6-0.3c0-0.2,0.1-0.2,0.5-0.2c0.5,0,0.9-0.1,1.2-0.1c0.6-0.1,0.8-0.8,0.9-1.8c0.1-1.4,0.1-3.9,0.1-6.8V74.9z"/>
		<path fill="#FFFFFF" d="M423.9,89.5c-0.5-0.2-0.6-0.4-0.6-1.1c0-1.8,0.1-3.7,0.2-4.2c0-0.5,0.1-0.8,0.4-0.8c0.3,0,0.3,0.3,0.3,0.5
			c0,0.4,0.1,1.1,0.3,1.6c0.7,2.4,2.6,3.2,4.6,3.2c2.9,0,4.3-2,4.3-3.7c0-1.6-0.5-3-3.1-5.1l-1.5-1.2c-3.5-2.8-4.7-5-4.7-7.6
			c0-3.5,2.9-6.1,7.4-6.1c2.1,0,3.4,0.3,4.3,0.6c0.3,0.1,0.5,0.2,0.5,0.4c0,0.4-0.1,1.3-0.1,3.9c0,0.7-0.1,1-0.4,1
			c-0.2,0-0.3-0.2-0.3-0.6c0-0.3-0.2-1.3-0.8-2.1c-0.5-0.6-1.4-1.6-3.5-1.6c-2.4,0-3.8,1.4-3.8,3.3c0,1.5,0.7,2.6,3.4,4.6l0.9,0.7
			c3.9,2.9,5.3,5.1,5.3,8.2c0,1.9-0.7,4.1-3,5.6c-1.6,1-3.4,1.3-5.1,1.3C426.7,90.3,425.3,90.1,423.9,89.5z"/>
		<path fill="#FFFFFF" d="M195,127c0-4.9,0-5.8-0.1-6.8c-0.1-1.1-0.4-1.6-1.1-1.8c-0.3-0.1-0.8-0.1-1.2-0.1c-0.3,0-0.5-0.1-0.5-0.3
			c0-0.2,0.3-0.2,0.8-0.2c1.2,0,3.3,0.1,4.2,0.1c0.8,0,2.7-0.1,3.9-0.1c0.4,0,0.7,0.1,0.7,0.2c0,0.3-0.2,0.3-0.5,0.3
			c-0.3,0-0.6,0-1,0.1c-0.9,0.2-1.1,0.7-1.2,1.8c-0.1,1-0.1,1.9-0.1,6.8v5.6c0,3.1,0,5.7,0.1,7c0.1,0.9,0.3,1.4,1.3,1.6
			c0.5,0.1,1.2,0.1,1.6,0.1c0.4,0,0.5,0.1,0.5,0.3c0,0.2-0.2,0.3-0.6,0.3c-2.1,0-4.1-0.1-5-0.1c-0.7,0-2.8,0.1-4,0.1
			c-0.4,0-0.7-0.1-0.7-0.3c0-0.2,0.1-0.3,0.5-0.3c0.5,0,0.9-0.1,1.2-0.1c0.6-0.1,0.8-0.7,0.9-1.6c0.1-1.4,0.1-3.9,0.1-7V127z"/>
		<path fill="#FFFFFF" d="M216.3,137.6c0.1,2.5,0.5,3.3,1.1,3.6c0.5,0.2,1.2,0.2,1.7,0.2c0.4,0,0.5,0.1,0.5,0.3
			c0,0.2-0.3,0.3-0.7,0.3c-2.1,0-3.4-0.1-4-0.1c-0.3,0-1.8,0.1-3.5,0.1c-0.4,0-0.7,0-0.7-0.3c0-0.2,0.2-0.3,0.5-0.3
			c0.4,0,1,0,1.5-0.2c0.8-0.3,1-1.2,1-4l0.3-19c0-0.6,0.1-1.1,0.4-1.1c0.3,0,0.6,0.4,1.2,1c0.4,0.4,5.3,5.7,10,10.3
			c2.2,2.2,6.5,6.8,7.1,7.3h0.2l-0.3-14.4c0-2-0.3-2.6-1.1-2.9c-0.5-0.2-1.3-0.2-1.7-0.2c-0.4,0-0.5-0.1-0.5-0.3
			c0-0.3,0.4-0.3,0.8-0.3c1.7,0,3.2,0.1,3.9,0.1c0.4,0,1.6-0.1,3.1-0.1c0.4,0,0.7,0,0.7,0.3c0,0.2-0.2,0.3-0.6,0.3
			c-0.3,0-0.6,0-1,0.1c-0.9,0.3-1.1,0.9-1.2,2.7l-0.4,20.3c0,0.7-0.1,1-0.4,1c-0.3,0-0.7-0.4-1.1-0.7c-2-1.9-6.1-6.1-9.5-9.4
			c-3.5-3.5-7.1-7.5-7.6-8.1H216L216.3,137.6z"/>
		<path fill="#FFFFFF" d="M248.2,141.6c-0.5-0.2-0.6-0.4-0.6-1.1c0-1.8,0.1-3.7,0.1-4.2c0-0.5,0.1-0.8,0.4-0.8
			c0.3,0,0.3,0.3,0.3,0.6c0,0.4,0.1,1.1,0.3,1.6c0.7,2.4,2.6,3.3,4.6,3.3c2.9,0,4.3-2,4.3-3.7c0-1.6-0.5-3-3.1-5.1L253,131
			c-3.5-2.8-4.8-5-4.8-7.6c0-3.5,2.9-6.1,7.4-6.1c2.1,0,3.4,0.3,4.3,0.5c0.3,0.1,0.5,0.2,0.5,0.4c0,0.4-0.1,1.3-0.1,3.8
			c0,0.7-0.1,1-0.4,1c-0.2,0-0.3-0.2-0.3-0.6c0-0.3-0.2-1.3-0.8-2.1c-0.5-0.6-1.4-1.6-3.5-1.6c-2.4,0-3.8,1.4-3.8,3.3
			c0,1.5,0.7,2.6,3.4,4.6l0.9,0.7c3.9,2.9,5.3,5.1,5.3,8.2c0,1.9-0.7,4.1-3,5.6c-1.6,1-3.4,1.3-5.1,1.3
			C251,142.5,249.6,142.2,248.2,141.6z"/>
		<path fill="#FFFFFF" d="M278,119.5l-4.8,0.1c-1.9,0.1-2.6,0.2-3.1,0.9c-0.3,0.5-0.5,0.9-0.6,1.1c-0.1,0.3-0.2,0.4-0.3,0.4
			c-0.2,0-0.3-0.2-0.3-0.5c0-0.5,0.6-3.4,0.7-3.7c0.1-0.4,0.2-0.6,0.4-0.6c0.3,0,0.6,0.3,1.4,0.4c0.9,0.1,2.2,0.2,3.2,0.2h12.7
			c1,0,1.7-0.1,2.2-0.2c0.5-0.1,0.7-0.1,0.9-0.1c0.2,0,0.3,0.2,0.3,0.7c0,0.7-0.1,2.9-0.1,3.7c0,0.3-0.1,0.5-0.3,0.5
			c-0.3,0-0.3-0.2-0.4-0.6l0-0.4c-0.1-0.8-0.9-1.7-3.8-1.8l-4-0.1v13.2c0,3,0,5.5,0.2,6.9c0.1,0.9,0.3,1.6,1.2,1.7
			c0.5,0.1,1.2,0.1,1.6,0.1c0.4,0,0.5,0.1,0.5,0.3c0,0.2-0.3,0.3-0.6,0.3c-2.1,0-4.1-0.1-5-0.1c-0.7,0-2.8,0.1-4.1,0.1
			c-0.4,0-0.7-0.1-0.7-0.3c0-0.2,0.1-0.3,0.5-0.3c0.5,0,0.9-0.1,1.2-0.1c0.7-0.1,0.8-0.8,0.9-1.8c0.2-1.4,0.2-3.9,0.2-6.9V119.5z"/>
		<path fill="#FFFFFF" d="M301.5,127c0-4.9,0-5.8-0.1-6.8c-0.1-1.1-0.4-1.6-1.1-1.8c-0.4-0.1-0.8-0.1-1.2-0.1
			c-0.3,0-0.5-0.1-0.5-0.3c0-0.2,0.3-0.2,0.8-0.2c1.2,0,3.3,0.1,4.2,0.1c0.8,0,2.7-0.1,3.9-0.1c0.4,0,0.7,0.1,0.7,0.2
			c0,0.3-0.2,0.3-0.5,0.3c-0.3,0-0.6,0-1,0.1c-0.9,0.2-1.1,0.7-1.2,1.8c-0.1,1-0.1,1.9-0.1,6.8v5.6c0,3.1,0,5.7,0.1,7
			c0.1,0.9,0.3,1.4,1.3,1.6c0.4,0.1,1.1,0.1,1.6,0.1c0.3,0,0.5,0.1,0.5,0.3c0,0.2-0.3,0.3-0.6,0.3c-2.1,0-4.1-0.1-5-0.1
			c-0.7,0-2.8,0.1-4,0.1c-0.4,0-0.6-0.1-0.6-0.3c0-0.2,0.1-0.3,0.5-0.3c0.5,0,0.9-0.1,1.1-0.1c0.6-0.1,0.8-0.7,0.9-1.6
			c0.2-1.4,0.2-3.9,0.2-7V127z"/>
		<path fill="#FFFFFF" d="M325.3,119.5l-4.8,0.1c-1.9,0.1-2.6,0.2-3.1,0.9c-0.3,0.5-0.5,0.9-0.5,1.1c-0.1,0.3-0.2,0.4-0.4,0.4
			c-0.2,0-0.3-0.2-0.3-0.5c0-0.5,0.6-3.4,0.7-3.7c0.1-0.4,0.2-0.6,0.4-0.6c0.3,0,0.6,0.3,1.4,0.4c0.9,0.1,2.1,0.2,3.2,0.2h12.7
			c1,0,1.7-0.1,2.2-0.2c0.5-0.1,0.7-0.1,0.9-0.1c0.2,0,0.3,0.2,0.3,0.7c0,0.7-0.1,2.9-0.1,3.7c0,0.3-0.1,0.5-0.3,0.5
			c-0.3,0-0.3-0.2-0.4-0.6l0-0.4c-0.1-0.8-0.9-1.7-3.8-1.8l-4.1-0.1v13.2c0,3,0,5.5,0.2,6.9c0.1,0.9,0.3,1.6,1.3,1.7
			c0.5,0.1,1.2,0.1,1.6,0.1c0.4,0,0.5,0.1,0.5,0.3c0,0.2-0.3,0.3-0.6,0.3c-2.1,0-4.1-0.1-5-0.1c-0.7,0-2.8,0.1-4,0.1
			c-0.4,0-0.6-0.1-0.6-0.3c0-0.2,0.1-0.3,0.5-0.3c0.5,0,0.9-0.1,1.1-0.1c0.7-0.1,0.8-0.8,0.9-1.8c0.2-1.4,0.2-3.9,0.2-6.9V119.5z"/>
		<path fill="#FFFFFF" d="M347.5,127c0-4.9,0-5.8-0.1-6.8c-0.1-1.1-0.3-1.6-1.4-1.8c-0.3-0.1-0.8-0.1-1.2-0.1
			c-0.3,0-0.5-0.1-0.5-0.3c0-0.2,0.2-0.3,0.7-0.3c1.7,0,3.7,0.1,4.7,0.1c0.8,0,2.8-0.1,4-0.1c0.5,0,0.7,0.1,0.7,0.3
			c0,0.2-0.2,0.3-0.5,0.3c-0.3,0-0.6,0-0.9,0.1c-0.9,0.2-1.1,0.7-1.2,1.8c-0.1,1-0.1,1.9-0.1,6.8v4.5c0,4.7,0.9,6.6,2.5,7.9
			c1.4,1.2,2.9,1.3,4,1.3c1.4,0,3.1-0.4,4.4-1.7c1.8-1.8,1.9-4.7,1.9-8v-4c0-4.9,0-5.8-0.1-6.8c0-1.1-0.3-1.6-1.4-1.8
			c-0.3-0.1-0.8-0.1-1.1-0.1c-0.4,0-0.6-0.1-0.6-0.3c0-0.2,0.2-0.3,0.7-0.3c1.7,0,3.7,0.1,3.7,0.1c0.4,0,2.4-0.1,3.7-0.1
			c0.4,0,0.7,0.1,0.7,0.3c0,0.2-0.2,0.3-0.6,0.3c-0.4,0-0.5,0-0.9,0.1c-0.9,0.2-1.1,0.7-1.2,1.8c-0.1,1-0.1,1.9-0.1,6.8v3.4
			c0,3.6-0.4,7.4-3,9.7c-2.3,2-4.6,2.3-6.7,2.3c-1.7,0-4.8-0.1-7.1-2.2c-1.6-1.5-2.9-3.9-2.9-8.5V127z"/>
		<path fill="#FFFFFF" d="M385.6,119.5l-4.8,0.1c-1.9,0.1-2.6,0.2-3.1,0.9c-0.3,0.5-0.5,0.9-0.6,1.1c-0.1,0.3-0.2,0.4-0.4,0.4
			c-0.2,0-0.3-0.2-0.3-0.5c0-0.5,0.6-3.4,0.7-3.7c0.1-0.4,0.2-0.6,0.4-0.6c0.3,0,0.6,0.3,1.4,0.4c0.9,0.1,2.2,0.2,3.2,0.2h12.7
			c1,0,1.7-0.1,2.2-0.2c0.5-0.1,0.7-0.1,0.9-0.1c0.2,0,0.2,0.2,0.2,0.7c0,0.7-0.1,2.9-0.1,3.7c0,0.3-0.1,0.5-0.3,0.5
			c-0.3,0-0.3-0.2-0.3-0.6l0-0.4c-0.1-0.8-0.9-1.7-3.8-1.8l-4.1-0.1v13.2c0,3,0,5.5,0.2,6.9c0.1,0.9,0.3,1.6,1.2,1.7
			c0.5,0.1,1.2,0.1,1.6,0.1c0.4,0,0.5,0.1,0.5,0.3c0,0.2-0.3,0.3-0.6,0.3c-2.1,0-4.1-0.1-5-0.1c-0.7,0-2.8,0.1-4.1,0.1
			c-0.4,0-0.6-0.1-0.6-0.3c0-0.2,0.1-0.3,0.5-0.3c0.5,0,0.9-0.1,1.1-0.1c0.7-0.1,0.8-0.8,0.9-1.8c0.1-1.4,0.1-3.9,0.1-6.9V119.5z"/>
		<path fill="#FFFFFF" d="M409.1,127c0-4.9,0-5.8-0.1-6.8c-0.1-1.1-0.3-1.6-1.4-1.8c-0.3-0.1-0.8-0.1-1.3-0.1
			c-0.3,0-0.5-0.1-0.5-0.3c0-0.2,0.2-0.3,0.7-0.3c0.9,0,1.8,0,2.6,0c0.8,0,1.6,0.1,2,0.1c1,0,7.4,0,8,0c0.6-0.1,1.1-0.1,1.4-0.2
			c0.2,0,0.3-0.1,0.5-0.1c0.2,0,0.2,0.1,0.2,0.3c0,0.2-0.2,0.6-0.3,2.1c0,0.3-0.1,1.7-0.2,2.1c0,0.2-0.1,0.3-0.3,0.3
			s-0.3-0.1-0.3-0.4c0-0.2,0-0.8-0.2-1.2c-0.2-0.6-0.5-1-2.2-1.2c-0.5-0.1-3.9-0.1-4.5-0.1c-0.2,0-0.2,0.1-0.2,0.3v8.1
			c0,0.2,0,0.4,0.2,0.4c0.7,0,4.4,0,5.1-0.1c0.8-0.1,1.2-0.2,1.5-0.5c0.2-0.3,0.4-0.4,0.5-0.4c0.1,0,0.2,0.1,0.2,0.2
			c0,0.2-0.1,0.7-0.3,2.3c0,0.6-0.1,1.9-0.1,2.2c0,0.3,0,0.6-0.3,0.6c-0.2,0-0.3-0.1-0.3-0.3c0-0.3,0-0.7-0.1-1.2
			c-0.1-0.6-0.6-1.1-1.8-1.2c-0.6-0.1-3.8-0.1-4.6-0.1c-0.1,0-0.2,0.1-0.2,0.3v2.5c0,1.1,0,4,0,5c0.1,2.2,0.6,2.7,3.8,2.7
			c0.8,0,2.2,0,3-0.4c0.8-0.4,1.2-1.1,1.4-2.4c0.1-0.3,0.1-0.5,0.4-0.5c0.3,0,0.3,0.3,0.3,0.6c0,0.7-0.3,2.9-0.4,3.6
			c-0.2,0.8-0.5,0.8-1.7,0.8c-2.4,0-4.2-0.1-5.5-0.1c-1.4-0.1-2.4-0.1-3.3-0.1c-0.4,0-1.1,0-1.8,0c-0.7,0-1.6,0.1-2.2,0.1
			c-0.4,0-0.6-0.1-0.6-0.3c0-0.2,0.1-0.3,0.5-0.3c0.5,0,0.9-0.1,1.2-0.1c0.6-0.1,0.8-0.8,0.9-1.8c0.2-1.4,0.2-3.9,0.2-6.9V127z"/>
	</g>
</g>
</svg>
